<?xml version="1.0" encoding="UTF-8"?>
<svg xmlns="http://www.w3.org/2000/svg" version="1.1" width="500" height="500" viewBox="0 0 500 500"><rect x="0" y="0" width="500" height="500" fill="#ffffff"/><g transform="scale(16.129)"><g transform="translate(1,1)"><g><g transform="translate(3.5,3.5)"><path fill-rule="evenodd" d="M-3.5 -3.5L3.5 -3.5L3.5 3.5L-3.5 3.5ZM-2.5 -2.5L-2.5 2.5L2.5 2.5L2.5 -2.5Z" fill="#000000"/><path fill-rule="evenodd" d="M-1.5 -1.5L1.5 -1.5L1.5 1.5L-1.5 1.5Z" fill="#000000"/></g></g><g><g transform="translate(25.5,3.5)"><g transform="rotate(90)"><path fill-rule="evenodd" d="M-3.5 -3.5L3.5 -3.5L3.5 3.5L-3.5 3.5ZM-2.5 -2.5L-2.5 2.5L2.5 2.5L2.5 -2.5Z" fill="#000000"/><path fill-rule="evenodd" d="M-1.5 -1.5L1.5 -1.5L1.5 1.5L-1.5 1.5Z" fill="#000000"/></g></g></g><g><g transform="translate(3.5,25.5)"><g transform="rotate(-90)"><path fill-rule="evenodd" d="M-3.5 -3.5L3.5 -3.5L3.5 3.5L-3.5 3.5ZM-2.5 -2.5L-2.5 2.5L2.5 2.5L2.5 -2.5Z" fill="#000000"/><path fill-rule="evenodd" d="M-1.5 -1.5L1.5 -1.5L1.5 1.5L-1.5 1.5Z" fill="#000000"/></g></g></g><path fill-rule="evenodd" d="M9 0L9 1L10 1L10 5L9 5L9 2L8 2L8 8L9 8L9 9L7 9L7 8L2 8L2 9L3 9L3 10L2 10L2 11L0 11L0 13L1 13L1 15L0 15L0 16L1 16L1 17L0 17L0 21L1 21L1 18L2 18L2 15L3 15L3 14L5 14L5 15L4 15L4 16L3 16L3 17L4 17L4 18L6 18L6 19L5 19L5 20L4 20L4 19L2 19L2 21L3 21L3 20L4 20L4 21L5 21L5 20L6 20L6 21L7 21L7 20L6 20L6 19L8 19L8 18L9 18L9 20L8 20L8 22L9 22L9 23L8 23L8 27L9 27L9 28L8 28L8 29L10 29L10 27L14 27L14 26L15 26L15 27L16 27L16 28L15 28L15 29L16 29L16 28L17 28L17 29L20 29L20 28L17 28L17 27L19 27L19 26L17 26L17 25L20 25L20 26L21 26L21 25L23 25L23 27L24 27L24 25L25 25L25 23L26 23L26 25L29 25L29 23L27 23L27 22L28 22L28 20L29 20L29 19L28 19L28 18L29 18L29 17L27 17L27 18L26 18L26 17L24 17L24 16L25 16L25 15L27 15L27 16L29 16L29 14L28 14L28 13L27 13L27 14L26 14L26 13L24 13L24 12L26 12L26 11L27 11L27 10L28 10L28 9L27 9L27 8L22 8L22 9L24 9L24 10L25 10L25 11L18 11L18 10L17 10L17 9L18 9L18 8L17 8L17 9L16 9L16 8L15 8L15 6L16 6L16 7L17 7L17 6L18 6L18 7L19 7L19 8L20 8L20 9L19 9L19 10L21 10L21 6L20 6L20 7L19 7L19 4L18 4L18 3L16 3L16 0L15 0L15 1L14 1L14 0L12 0L12 1L10 1L10 0ZM19 0L19 1L17 1L17 2L19 2L19 3L20 3L20 5L21 5L21 3L20 3L20 1L21 1L21 0ZM11 2L11 3L12 3L12 4L11 4L11 5L10 5L10 6L9 6L9 7L10 7L10 6L11 6L11 9L9 9L9 10L8 10L8 11L6 11L6 10L7 10L7 9L6 9L6 10L3 10L3 11L2 11L2 12L1 12L1 13L2 13L2 14L3 14L3 12L4 12L4 11L5 11L5 12L8 12L8 15L5 15L5 16L4 16L4 17L6 17L6 18L7 18L7 17L8 17L8 16L9 16L9 17L10 17L10 16L11 16L11 18L12 18L12 19L10 19L10 21L11 21L11 20L12 20L12 22L13 22L13 24L12 24L12 23L11 23L11 22L10 22L10 23L9 23L9 25L10 25L10 26L9 26L9 27L10 27L10 26L11 26L11 24L12 24L12 25L13 25L13 26L14 26L14 25L15 25L15 26L16 26L16 27L17 27L17 26L16 26L16 25L17 25L17 24L19 24L19 23L15 23L15 21L14 21L14 20L16 20L16 22L20 22L20 20L19 20L19 19L20 19L20 18L21 18L21 19L23 19L23 18L24 18L24 19L25 19L25 20L27 20L27 19L25 19L25 18L24 18L24 17L23 17L23 18L21 18L21 17L22 17L22 16L19 16L19 19L17 19L17 18L18 18L18 17L15 17L15 16L18 16L18 15L25 15L25 14L24 14L24 13L23 13L23 14L21 14L21 13L22 13L22 12L21 12L21 13L20 13L20 12L18 12L18 11L17 11L17 10L16 10L16 11L14 11L14 12L13 12L13 11L12 11L12 12L10 12L10 10L12 10L12 8L13 8L13 9L15 9L15 8L14 8L14 6L15 6L15 4L14 4L14 3L15 3L15 2L14 2L14 3L13 3L13 2ZM16 4L16 5L18 5L18 4ZM11 5L11 6L12 6L12 7L13 7L13 5ZM0 8L0 9L1 9L1 8ZM26 9L26 10L27 10L27 9ZM16 11L16 12L14 12L14 13L15 13L15 14L16 14L16 15L18 15L18 14L16 14L16 13L17 13L17 11ZM28 11L28 12L29 12L29 11ZM5 13L5 14L7 14L7 13ZM12 13L12 14L9 14L9 15L12 15L12 16L13 16L13 13ZM14 15L14 16L15 16L15 15ZM6 16L6 17L7 17L7 16ZM13 17L13 19L12 19L12 20L14 20L14 19L16 19L16 20L17 20L17 19L16 19L16 18L15 18L15 17ZM18 20L18 21L19 21L19 20ZM21 21L21 24L24 24L24 21ZM25 21L25 22L27 22L27 21ZM22 22L22 23L23 23L23 22ZM10 23L10 24L11 24L11 23ZM14 23L14 24L15 24L15 25L16 25L16 24L15 24L15 23ZM26 26L26 27L25 27L25 28L24 28L24 29L27 29L27 27L28 27L28 28L29 28L29 27L28 27L28 26ZM11 28L11 29L12 29L12 28ZM13 28L13 29L14 29L14 28ZM21 28L21 29L23 29L23 28Z" fill="#000000"/></g></g></svg>
